<mxfile host="app.diagrams.net" modified="2022-03-17T13:53:47.513Z" agent="5.0 (Windows NT 10.0; Win64; x64) AppleWebKit/537.36 (KHTML, like Gecko) Chrome/99.0.4844.51 Safari/537.36" etag="ae4u9DaT1QqEIRLMIQvO" version="17.1.3" type="github">
  <diagram id="XKbdgjO9sRhRgHEfTtYC" name="Page-1">
    <mxGraphModel dx="923" dy="402" grid="1" gridSize="10" guides="1" tooltips="1" connect="1" arrows="1" fold="1" page="1" pageScale="1" pageWidth="827" pageHeight="1169" background="#F1FAEE" math="0" shadow="0">
      <root>
        <mxCell id="0" />
        <mxCell id="1" parent="0" />
        <mxCell id="9iY-JHqFjcFLMmWOC__Q-7" value="" style="edgeStyle=orthogonalEdgeStyle;rounded=1;orthogonalLoop=1;jettySize=auto;html=1;labelBackgroundColor=#F1FAEE;strokeColor=#457B9D;fontColor=#1D3557;sketch=1;curved=1;" edge="1" parent="1" source="9iY-JHqFjcFLMmWOC__Q-1" target="9iY-JHqFjcFLMmWOC__Q-3">
          <mxGeometry relative="1" as="geometry" />
        </mxCell>
        <mxCell id="9iY-JHqFjcFLMmWOC__Q-1" value="INICIO" style="rounded=1;whiteSpace=wrap;html=1;fillColor=#A8DADC;strokeColor=#457B9D;strokeWidth=1;fontColor=#1D3557;sketch=1;" vertex="1" parent="1">
          <mxGeometry x="100" y="80" width="140" height="80" as="geometry" />
        </mxCell>
        <mxCell id="9iY-JHqFjcFLMmWOC__Q-2" value="FIM" style="rounded=1;whiteSpace=wrap;html=1;fillColor=#A8DADC;strokeColor=#457B9D;fontColor=#1D3557;sketch=1;" vertex="1" parent="1">
          <mxGeometry x="480" y="320" width="150" height="75" as="geometry" />
        </mxCell>
        <mxCell id="9iY-JHqFjcFLMmWOC__Q-8" value="" style="edgeStyle=orthogonalEdgeStyle;rounded=1;orthogonalLoop=1;jettySize=auto;html=1;labelBackgroundColor=#F1FAEE;strokeColor=#457B9D;fontColor=#1D3557;sketch=1;curved=1;" edge="1" parent="1" source="9iY-JHqFjcFLMmWOC__Q-3" target="9iY-JHqFjcFLMmWOC__Q-6">
          <mxGeometry relative="1" as="geometry" />
        </mxCell>
        <mxCell id="9iY-JHqFjcFLMmWOC__Q-3" value="ENTRADA" style="shape=parallelogram;perimeter=parallelogramPerimeter;whiteSpace=wrap;html=1;fixedSize=1;fillColor=#A8DADC;strokeColor=#457B9D;rounded=1;fontColor=#1D3557;sketch=1;" vertex="1" parent="1">
          <mxGeometry x="110" y="230" width="150" height="80" as="geometry" />
        </mxCell>
        <mxCell id="9iY-JHqFjcFLMmWOC__Q-12" value="" style="edgeStyle=orthogonalEdgeStyle;rounded=1;orthogonalLoop=1;jettySize=auto;html=1;labelBackgroundColor=#F1FAEE;strokeColor=#457B9D;fontColor=#1D3557;sketch=1;curved=1;" edge="1" parent="1" source="9iY-JHqFjcFLMmWOC__Q-4" target="9iY-JHqFjcFLMmWOC__Q-2">
          <mxGeometry relative="1" as="geometry" />
        </mxCell>
        <mxCell id="9iY-JHqFjcFLMmWOC__Q-4" value="SAÍDA" style="shape=document;whiteSpace=wrap;html=1;boundedLbl=1;fillColor=#A8DADC;strokeColor=#457B9D;rounded=1;fontColor=#1D3557;sketch=1;" vertex="1" parent="1">
          <mxGeometry x="640" y="190" width="170" height="100" as="geometry" />
        </mxCell>
        <mxCell id="9iY-JHqFjcFLMmWOC__Q-11" value="" style="edgeStyle=orthogonalEdgeStyle;rounded=1;orthogonalLoop=1;jettySize=auto;html=1;labelBackgroundColor=#F1FAEE;strokeColor=#457B9D;fontColor=#1D3557;sketch=1;curved=1;" edge="1" parent="1" source="9iY-JHqFjcFLMmWOC__Q-5" target="9iY-JHqFjcFLMmWOC__Q-4">
          <mxGeometry relative="1" as="geometry" />
        </mxCell>
        <mxCell id="9iY-JHqFjcFLMmWOC__Q-5" value="DECISÃO" style="rhombus;whiteSpace=wrap;html=1;fillColor=#A8DADC;strokeColor=#457B9D;rounded=1;fontColor=#1D3557;sketch=1;" vertex="1" parent="1">
          <mxGeometry x="540" y="20" width="130" height="130" as="geometry" />
        </mxCell>
        <mxCell id="9iY-JHqFjcFLMmWOC__Q-10" value="" style="edgeStyle=orthogonalEdgeStyle;rounded=1;orthogonalLoop=1;jettySize=auto;html=1;labelBackgroundColor=#F1FAEE;strokeColor=#457B9D;fontColor=#1D3557;sketch=1;curved=1;" edge="1" parent="1" source="9iY-JHqFjcFLMmWOC__Q-6" target="9iY-JHqFjcFLMmWOC__Q-5">
          <mxGeometry relative="1" as="geometry" />
        </mxCell>
        <mxCell id="9iY-JHqFjcFLMmWOC__Q-6" value="PROCESSAMENTO" style="rounded=1;whiteSpace=wrap;html=1;fillColor=#A8DADC;strokeColor=#457B9D;fontColor=#1D3557;sketch=1;" vertex="1" parent="1">
          <mxGeometry x="320" y="150" width="180" height="90" as="geometry" />
        </mxCell>
        <mxCell id="9iY-JHqFjcFLMmWOC__Q-13" value="INICIO" style="rounded=1;whiteSpace=wrap;html=1;fillColor=#A8DADC;strokeColor=#457B9D;strokeWidth=1;fontColor=#1D3557;sketch=1;" vertex="1" parent="1">
          <mxGeometry x="100" y="80" width="140" height="80" as="geometry" />
        </mxCell>
        <mxCell id="9iY-JHqFjcFLMmWOC__Q-22" value="" style="edgeStyle=orthogonalEdgeStyle;rounded=1;orthogonalLoop=1;jettySize=auto;html=1;labelBackgroundColor=#F1FAEE;strokeColor=#457B9D;fontColor=#1D3557;sketch=1;curved=1;" edge="1" parent="1" source="9iY-JHqFjcFLMmWOC__Q-14" target="9iY-JHqFjcFLMmWOC__Q-15">
          <mxGeometry relative="1" as="geometry" />
        </mxCell>
        <mxCell id="9iY-JHqFjcFLMmWOC__Q-14" value="INÍCIO" style="rounded=1;whiteSpace=wrap;html=1;strokeWidth=1;fillColor=#A8DADC;strokeColor=#457B9D;fontColor=#1D3557;sketch=1;" vertex="1" parent="1">
          <mxGeometry x="330" y="500" width="120" height="60" as="geometry" />
        </mxCell>
        <mxCell id="9iY-JHqFjcFLMmWOC__Q-23" value="" style="edgeStyle=orthogonalEdgeStyle;rounded=1;orthogonalLoop=1;jettySize=auto;html=1;labelBackgroundColor=#F1FAEE;strokeColor=#457B9D;fontColor=#1D3557;sketch=1;curved=1;" edge="1" parent="1" source="9iY-JHqFjcFLMmWOC__Q-15" target="9iY-JHqFjcFLMmWOC__Q-16">
          <mxGeometry relative="1" as="geometry" />
        </mxCell>
        <mxCell id="9iY-JHqFjcFLMmWOC__Q-40" value="" style="edgeStyle=orthogonalEdgeStyle;curved=1;rounded=1;sketch=1;orthogonalLoop=1;jettySize=auto;html=1;fontColor=#1D3557;strokeColor=#457B9D;fillColor=#A8DADC;" edge="1" parent="1" source="9iY-JHqFjcFLMmWOC__Q-15" target="9iY-JHqFjcFLMmWOC__Q-37">
          <mxGeometry relative="1" as="geometry" />
        </mxCell>
        <mxCell id="9iY-JHqFjcFLMmWOC__Q-15" value="A,B" style="shape=parallelogram;perimeter=parallelogramPerimeter;whiteSpace=wrap;html=1;fixedSize=1;strokeWidth=1;fillColor=#A8DADC;strokeColor=#457B9D;rounded=1;fontColor=#1D3557;sketch=1;" vertex="1" parent="1">
          <mxGeometry x="330" y="630" width="120" height="60" as="geometry" />
        </mxCell>
        <mxCell id="9iY-JHqFjcFLMmWOC__Q-24" value="" style="edgeStyle=orthogonalEdgeStyle;rounded=1;orthogonalLoop=1;jettySize=auto;html=1;labelBackgroundColor=#F1FAEE;strokeColor=#457B9D;fontColor=#1D3557;sketch=1;curved=1;" edge="1" parent="1" source="9iY-JHqFjcFLMmWOC__Q-16" target="9iY-JHqFjcFLMmWOC__Q-17">
          <mxGeometry relative="1" as="geometry" />
        </mxCell>
        <mxCell id="9iY-JHqFjcFLMmWOC__Q-30" value="&lt;h1 style=&quot;font-size: 13px;&quot;&gt;FALSO&lt;/h1&gt;" style="edgeLabel;html=1;align=center;verticalAlign=middle;resizable=0;points=[];fontFamily=Garamond;fontSize=13;rounded=1;labelBackgroundColor=#F1FAEE;fontColor=#1D3557;sketch=1;" vertex="1" connectable="0" parent="9iY-JHqFjcFLMmWOC__Q-24">
          <mxGeometry x="0.02" y="-3" relative="1" as="geometry">
            <mxPoint as="offset" />
          </mxGeometry>
        </mxCell>
        <mxCell id="9iY-JHqFjcFLMmWOC__Q-16" value="A&amp;gt;B" style="rhombus;whiteSpace=wrap;html=1;strokeWidth=1;fillColor=#A8DADC;strokeColor=#457B9D;rounded=1;fontColor=#1D3557;sketch=1;" vertex="1" parent="1">
          <mxGeometry x="345" y="750" width="90" height="90" as="geometry" />
        </mxCell>
        <mxCell id="9iY-JHqFjcFLMmWOC__Q-27" value="" style="edgeStyle=orthogonalEdgeStyle;rounded=1;orthogonalLoop=1;jettySize=auto;html=1;labelBackgroundColor=#F1FAEE;strokeColor=#457B9D;fontColor=#1D3557;sketch=1;curved=1;" edge="1" parent="1" source="9iY-JHqFjcFLMmWOC__Q-17" target="9iY-JHqFjcFLMmWOC__Q-21">
          <mxGeometry relative="1" as="geometry">
            <Array as="points">
              <mxPoint x="220" y="1110" />
            </Array>
          </mxGeometry>
        </mxCell>
        <mxCell id="9iY-JHqFjcFLMmWOC__Q-17" value="B" style="shape=document;whiteSpace=wrap;html=1;boundedLbl=1;strokeWidth=1;fillColor=#A8DADC;strokeColor=#457B9D;rounded=1;fontColor=#1D3557;sketch=1;" vertex="1" parent="1">
          <mxGeometry x="160" y="910" width="120" height="80" as="geometry" />
        </mxCell>
        <mxCell id="9iY-JHqFjcFLMmWOC__Q-28" value="" style="edgeStyle=orthogonalEdgeStyle;orthogonalLoop=1;jettySize=auto;html=1;rounded=0;labelBackgroundColor=#F1FAEE;strokeColor=#457B9D;fontColor=#1D3557;sketch=1;curved=1;" edge="1" parent="1" source="9iY-JHqFjcFLMmWOC__Q-20" target="9iY-JHqFjcFLMmWOC__Q-21">
          <mxGeometry relative="1" as="geometry">
            <Array as="points">
              <mxPoint x="590" y="1110" />
            </Array>
          </mxGeometry>
        </mxCell>
        <mxCell id="9iY-JHqFjcFLMmWOC__Q-20" value="A" style="shape=document;whiteSpace=wrap;html=1;boundedLbl=1;strokeWidth=1;fillColor=#A8DADC;strokeColor=#457B9D;rounded=1;fontColor=#1D3557;sketch=1;" vertex="1" parent="1">
          <mxGeometry x="510" y="870" width="120" height="80" as="geometry" />
        </mxCell>
        <mxCell id="9iY-JHqFjcFLMmWOC__Q-21" value="FIM" style="rounded=1;whiteSpace=wrap;html=1;strokeWidth=1;fillColor=#A8DADC;strokeColor=#457B9D;fontColor=#1D3557;sketch=1;" vertex="1" parent="1">
          <mxGeometry x="340" y="1070" width="120" height="60" as="geometry" />
        </mxCell>
        <mxCell id="9iY-JHqFjcFLMmWOC__Q-35" value="" style="edgeStyle=orthogonalEdgeStyle;curved=1;rounded=1;sketch=1;orthogonalLoop=1;jettySize=auto;html=1;fontColor=#1D3557;strokeColor=#457B9D;fillColor=#A8DADC;" edge="1" parent="1" source="9iY-JHqFjcFLMmWOC__Q-31" target="9iY-JHqFjcFLMmWOC__Q-20">
          <mxGeometry relative="1" as="geometry" />
        </mxCell>
        <mxCell id="9iY-JHqFjcFLMmWOC__Q-31" value="&lt;h1 style=&quot;font-size: 13px;&quot;&gt;VERDADEIRO&lt;/h1&gt;" style="text;html=1;align=center;verticalAlign=middle;resizable=0;points=[];autosize=1;strokeColor=none;fillColor=none;fontFamily=Garamond;fontSize=13;rounded=1;fontColor=#1D3557;sketch=1;" vertex="1" parent="1">
          <mxGeometry x="460" y="775" width="100" height="40" as="geometry" />
        </mxCell>
        <mxCell id="9iY-JHqFjcFLMmWOC__Q-33" value="" style="edgeStyle=orthogonalEdgeStyle;rounded=1;orthogonalLoop=1;jettySize=auto;html=1;endArrow=none;labelBackgroundColor=#F1FAEE;strokeColor=#457B9D;fontColor=#1D3557;sketch=1;curved=1;" edge="1" parent="1" source="9iY-JHqFjcFLMmWOC__Q-16" target="9iY-JHqFjcFLMmWOC__Q-31">
          <mxGeometry relative="1" as="geometry">
            <mxPoint x="435" y="795" as="sourcePoint" />
            <mxPoint x="570" y="870" as="targetPoint" />
          </mxGeometry>
        </mxCell>
        <mxCell id="9iY-JHqFjcFLMmWOC__Q-41" value="" style="edgeStyle=orthogonalEdgeStyle;curved=1;rounded=1;sketch=1;orthogonalLoop=1;jettySize=auto;html=1;fontColor=#1D3557;strokeColor=#457B9D;fillColor=#A8DADC;" edge="1" parent="1" source="9iY-JHqFjcFLMmWOC__Q-37" target="9iY-JHqFjcFLMmWOC__Q-38">
          <mxGeometry relative="1" as="geometry" />
        </mxCell>
        <mxCell id="9iY-JHqFjcFLMmWOC__Q-37" value="A=B" style="rhombus;whiteSpace=wrap;html=1;rounded=0;sketch=1;fontColor=#1D3557;strokeColor=#457B9D;fillColor=#A8DADC;" vertex="1" parent="1">
          <mxGeometry x="540" y="620" width="80" height="80" as="geometry" />
        </mxCell>
        <mxCell id="9iY-JHqFjcFLMmWOC__Q-42" value="" style="edgeStyle=orthogonalEdgeStyle;curved=1;rounded=1;sketch=1;orthogonalLoop=1;jettySize=auto;html=1;fontColor=#1D3557;strokeColor=#457B9D;fillColor=#A8DADC;" edge="1" parent="1" source="9iY-JHqFjcFLMmWOC__Q-38" target="9iY-JHqFjcFLMmWOC__Q-39">
          <mxGeometry relative="1" as="geometry" />
        </mxCell>
        <mxCell id="9iY-JHqFjcFLMmWOC__Q-38" value="SÃO IGUAIS" style="shape=document;whiteSpace=wrap;html=1;boundedLbl=1;rounded=0;sketch=1;fontColor=#1D3557;strokeColor=#457B9D;fillColor=#A8DADC;" vertex="1" parent="1">
          <mxGeometry x="690" y="620" width="120" height="80" as="geometry" />
        </mxCell>
        <mxCell id="9iY-JHqFjcFLMmWOC__Q-39" value="FIM" style="rounded=1;whiteSpace=wrap;html=1;sketch=1;fontColor=#1D3557;strokeColor=#457B9D;fillColor=#A8DADC;" vertex="1" parent="1">
          <mxGeometry x="690" y="765" width="120" height="60" as="geometry" />
        </mxCell>
      </root>
    </mxGraphModel>
  </diagram>
</mxfile>
